<svg width="36" height="36" viewBox="0 0 36 36" fill="none" xmlns="http://www.w3.org/2000/svg">
<path d="M24 4.5H12C7.8585 4.5 4.5 7.8585 4.5 12V24C4.5 28.1415 7.8585 31.5 12 31.5H24C28.1415 31.5 31.5 28.1415 31.5 24V12C31.5 7.8585 28.1415 4.5 24 4.5ZM18 25.5C13.8585 25.5 10.5 22.1415 10.5 18C10.5 13.8585 13.8585 10.5 18 10.5C22.1415 10.5 25.5 13.8585 25.5 18C25.5 22.1415 22.1415 25.5 18 25.5ZM27 10.5C26.172 10.5 25.5 9.828 25.5 9C25.5 8.172 26.172 7.5 27 7.5C27.828 7.5 28.5 8.172 28.5 9C28.5 9.828 27.828 10.5 27 10.5Z" fill="#424242"/>
<path d="M18 13.5C16.8065 13.5 15.6619 13.9741 14.818 14.818C13.9741 15.6619 13.5 16.8065 13.5 18C13.5 19.1935 13.9741 20.3381 14.818 21.182C15.6619 22.0259 16.8065 22.5 18 22.5C19.1935 22.5 20.3381 22.0259 21.182 21.182C22.0259 20.3381 22.5 19.1935 22.5 18C22.5 16.8065 22.0259 15.6619 21.182 14.818C20.3381 13.9741 19.1935 13.5 18 13.5Z" fill="#424242"/>
</svg>
