<svg width="36" height="36" viewBox="0 0 36 36" fill="none" xmlns="http://www.w3.org/2000/svg">
<path d="M29.8234 6.15305C28.9969 6.47855 11.5564 13.8241 5.55038 16.3516C5.19938 16.4986 4.50488 16.7236 4.50488 17.4556C4.50488 18.0436 4.95638 18.3346 5.47688 18.5416C6.79088 19.0651 11.6254 21.0001 11.6254 21.0001C11.6254 21.0001 13.3519 26.1676 13.7104 27.3001C14.0689 28.4341 14.3569 28.4611 14.3569 28.4611C14.4364 28.4956 14.5144 28.5091 14.5864 28.5091C14.8174 28.5091 14.9944 28.3741 14.9944 28.3741L19.5004 24.5626L24.7864 29.4526C24.7864 29.4526 25.3114 30.0001 25.8919 30.0001C26.5984 30.0001 27.1099 29.2951 27.1999 28.8376C27.3244 28.1971 31.4254 7.60505 31.4254 7.60505C31.7974 5.94455 30.6949 5.80955 29.8234 6.15305Z" stroke="#424242" stroke-width="2" stroke-miterlimit="10"/>
<path d="M25.2001 12C25.0126 12 24.7591 12.1785 24.6241 12.2625C22.6921 13.467 13.0051 18.9795 10.3486 20.4885C11.0971 20.7885 11.6251 21 11.6251 21C11.6251 21 13.3516 26.1675 13.7101 27.3C14.0686 28.434 14.3566 28.461 14.3566 28.461C14.4361 28.4955 14.5141 28.509 14.5861 28.509C14.6446 28.509 14.6851 28.488 14.7346 28.4745L16.5001 21.5625C16.5001 21.5625 24.5446 13.4205 25.0291 12.9465C25.4191 12.567 25.5001 12.4335 25.5001 12.3015C25.5001 12.126 25.4086 12 25.2001 12Z" fill="#424242"/>
</svg>
