<svg width="36" height="36" viewBox="0 0 36 36" fill="none" xmlns="http://www.w3.org/2000/svg">
<path d="M28.6155 7.392C25.7865 4.5615 22.0245 3.0015 18.0165 3C9.7575 3 3.036 9.7185 3.033 17.9775C3.0315 20.6175 3.7215 23.1945 5.0325 25.4655L3 33L10.8495 31.1445C13.038 32.3385 15.501 32.967 18.009 32.9685H18.015C26.2725 32.9685 32.994 26.2485 32.9985 17.991C33.0015 13.9875 31.4445 10.224 28.6155 7.392ZM18.0105 29.9685C16.011 29.967 14.031 29.463 12.2865 28.5105L11.277 27.96L10.1595 28.224L7.2075 28.9215L7.929 26.2455L8.253 25.0425L7.6305 23.964C6.5835 22.152 6.0315 20.082 6.033 17.9775C6.036 11.3745 11.4105 6 18.015 6C21.219 6.0015 24.2295 7.2495 26.493 9.5115C28.7565 11.7765 30.0015 14.787 29.9985 17.988C29.9955 24.594 24.6195 29.9685 18.0105 29.9685Z" fill="#424242"/>
<path d="M25.3473 23.331C25.0353 24.2055 23.5068 25.0485 22.8198 25.11C22.1328 25.173 21.4893 25.4205 18.3273 24.174C14.5218 22.674 12.1188 18.7725 11.9328 18.5235C11.7453 18.273 10.4043 16.494 10.4043 14.652C10.4043 12.81 11.3718 11.904 11.7153 11.5305C12.0588 11.1555 12.4638 11.0625 12.7143 11.0625C12.9633 11.0625 13.2138 11.0625 13.4313 11.0715C13.6983 11.082 13.9938 11.0955 14.2743 11.718C14.6073 12.459 15.3348 14.31 15.4278 14.4975C15.5208 14.685 15.5838 14.904 15.4593 15.153C15.3348 15.402 15.2718 15.558 15.0858 15.777C14.8983 15.996 14.6928 16.2645 14.5248 16.4325C14.3373 16.6185 14.1423 16.8225 14.3598 17.196C14.5788 17.571 15.3288 18.7965 16.4418 19.788C17.8728 21.063 19.0773 21.4575 19.4523 21.6465C19.8273 21.834 20.0448 21.8025 20.2638 21.552C20.4828 21.303 21.1998 20.46 21.4488 20.085C21.6978 19.71 21.9483 19.773 22.2918 19.8975C22.6353 20.022 24.4758 20.928 24.8493 21.1155C25.2243 21.303 25.4733 21.396 25.5663 21.552C25.6593 21.7065 25.6593 22.4565 25.3473 23.331Z" fill="#424242"/>
</svg>
